<svg xmlns="http://www.w3.org/2000/svg" version="1.1" viewBox="0 0 512 512" width="512px" height="512px">
  <defs/>
  <g style="">
    <path d="M 128.912 399.978 L 4.23853 301.848 L 66.173 186.827 L 243.933 256 L 128.912 399.978 Z" fill="url(#a)"/>
    <path d="M 513.388 136.153 L 503.736 433.76 L 305.868 513.39 L 186.825 436.173 L 360.563 256 L 284.955 88.6966 L 353.324 6.65354 L 513.388 136.153 Z" fill="url(#b)"/>
    <path d="M 513.388 136.153 L 356.541 321.152 L 284.955 88.6966 L 353.324 6.65354 L 513.388 136.153 Z" fill="url(#c)"/>
    <path d="M 246.346 425.717 L 40.434 500.521 L 73.4121 384.695 L 116.042 241.522 L -1.39188 202.109 L 73.4121 -1.3899 L 234.281 17.9144 L 393.541 199.696 L 246.346 425.717 Z" fill="url(#d)"/>
  </g>
  <path d="M 89.806 87.674 H 455.432 V 453.3 H 89.806 V 87.674 Z" style=""/>
  <g style="">
    <path d="M 232.093 104.403 C 240.686 105.099 247.844 108.26 253.566 113.887 C 259.888 120.099 263.6 128.572 263.6 137.439 C 263.613 194.223 263.597 225.326 263.554 230.744 C 263.515 235.379 262.632 239.645 260.905 243.545 C 255.658 255.4 243.843 263.6 230.718 263.6 C 175.27 263.596 146.337 263.602 143.918 263.619 C 137.596 263.662 133.293 263.436 131.008 262.939 C 124.6 261.553 119.137 258.687 114.619 254.344 C 108.47 248.431 105.064 241.036 104.403 232.157 L 104.403 135.912 C 104.844 129.481 106.767 123.818 110.176 118.921 C 116.29 110.131 124.871 105.293 135.918 104.403 L 232.093 104.403 Z M 131.299 144.002 L 236.769 144.002 C 236.998 144.002 237.184 143.817 237.184 143.588 L 237.184 138.107 C 237.184 134.114 233.817 130.878 229.664 130.878 L 138.406 130.878 C 134.252 130.878 130.884 134.114 130.884 138.107 L 130.884 143.588 C 130.884 143.817 131.07 144.002 131.299 144.002 Z M 184.002 237.073 L 227.921 237.073 C 230.374 237.073 231.907 236.959 232.519 236.73 C 234.183 236.112 235.448 235.059 236.315 233.569 C 236.83 232.692 237.086 230.639 237.086 227.409 C 237.078 217.04 237.076 198.139 237.08 170.703 C 237.08 170.61 237.004 170.534 236.912 170.534 C 205.473 170.539 187.837 170.541 184.002 170.541 C 180.167 170.541 162.53 170.539 131.092 170.534 C 130.999 170.534 130.923 170.61 130.923 170.703 C 130.927 198.139 130.926 217.04 130.917 227.409 C 130.917 230.639 131.174 232.692 131.688 233.569 C 132.555 235.059 133.821 236.112 135.484 236.73 C 136.097 236.959 137.631 237.073 140.083 237.073 L 184.002 237.073 Z" style="fill: rgb(18, 124, 242);"/>
    <path d="M 404.47 104.403 C 413.189 104.987 420.502 108.258 426.41 114.217 C 432.236 120.091 435.453 127.341 436.063 135.97 L 436.063 231.989 C 435.462 240.639 432.242 247.9 426.403 253.773 C 421.636 258.566 415.994 261.611 409.478 262.907 C 407.224 263.355 402.919 263.583 396.561 263.587 C 357.95 263.604 329.207 263.591 310.33 263.548 C 301.071 263.531 293.238 260.347 286.828 254 C 281.962 249.18 278.86 243.51 277.52 236.989 C 277.079 234.843 276.86 230.54 276.86 224.08 C 276.851 175.976 276.862 147.204 276.892 137.763 C 276.918 128.876 280.138 120.838 286.324 114.444 C 292.094 108.489 299.414 105.142 308.283 104.403 L 404.47 104.403 Z M 303.658 144.009 L 409.167 144.009 C 409.385 144.009 409.562 143.831 409.562 143.614 L 409.562 138.12 C 409.562 134.117 406.189 130.871 402.028 130.871 L 310.796 130.871 C 306.636 130.871 303.263 134.117 303.263 138.12 L 303.263 143.614 C 303.263 143.831 303.439 144.009 303.658 144.009 Z M 356.464 237.073 C 381.493 237.073 396.257 237.072 400.752 237.067 C 403.054 237.063 404.557 236.913 405.261 236.621 C 406.868 235.951 408.062 234.873 408.843 233.388 C 409.314 232.499 409.547 230.466 409.543 227.292 C 409.539 209.012 409.539 190.149 409.543 170.703 C 409.543 170.613 409.47 170.541 409.38 170.541 C 403.733 170.537 386.093 170.534 356.464 170.534 C 326.835 170.534 309.196 170.537 303.547 170.541 C 303.459 170.541 303.386 170.613 303.386 170.703 C 303.39 190.149 303.39 209.012 303.386 227.292 C 303.381 230.466 303.615 232.499 304.086 233.388 C 304.867 234.873 306.061 235.951 307.667 236.621 C 308.372 236.913 309.874 237.063 312.177 237.067 C 316.672 237.072 331.434 237.073 356.464 237.073 Z" style="fill: rgb(206, 64, 124);"/>
    <path d="M 232.093 436.063 L 136.034 436.063 C 127.212 435.466 119.834 432.139 113.9 426.08 C 108.182 420.246 105.017 413.068 104.403 404.548 L 104.403 308.38 C 105.043 299.64 108.34 292.329 114.295 286.446 C 118.83 281.973 124.349 279.012 130.852 277.566 C 133.198 277.043 137.498 276.805 143.755 276.853 C 147.142 276.879 175.967 276.886 230.233 276.873 C 239.306 276.869 247.162 280.105 253.799 286.583 C 260.199 292.827 263.462 300.732 263.587 310.298 C 263.604 311.58 263.609 342.706 263.6 403.674 C 263.6 407.915 262.695 412.054 260.886 416.091 C 259.171 419.917 256.816 423.336 253.818 426.346 C 248.054 432.124 240.811 435.363 232.093 436.063 Z M 131.267 316.471 L 236.762 316.471 C 236.981 316.471 237.158 316.294 237.158 316.075 L 237.158 310.543 C 237.158 306.569 233.817 303.347 229.695 303.347 L 138.334 303.347 C 134.212 303.347 130.871 306.569 130.871 310.543 L 130.871 316.075 C 130.871 316.294 131.048 316.471 131.267 316.471 Z M 184.002 409.556 C 209.369 409.556 224.062 409.552 228.082 409.543 C 230.445 409.539 231.972 409.402 232.662 409.134 C 234.316 408.491 235.547 407.411 236.354 405.895 C 236.843 404.985 237.086 402.925 237.086 399.716 C 237.078 372.375 237.078 353.547 237.086 343.23 C 237.086 343.115 236.994 343.023 236.88 343.023 C 233.904 343.01 216.278 343.004 184.002 343.004 C 151.725 343.004 134.1 343.01 131.125 343.023 C 131.009 343.023 130.917 343.115 130.917 343.23 C 130.926 353.547 130.926 372.375 130.917 399.716 C 130.917 402.925 131.161 404.985 131.649 405.895 C 132.456 407.411 133.688 408.491 135.341 409.134 C 136.032 409.402 137.559 409.539 139.921 409.543 C 143.941 409.552 158.636 409.556 184.002 409.556 Z" style="fill: rgb(206, 64, 124);"/>
    <path d="M 436.063 308.38 L 436.063 404.432 C 435.216 415.556 430.346 424.19 421.455 430.336 C 416.571 433.709 410.926 435.618 404.522 436.063 L 308.464 436.063 C 299.737 435.449 292.428 432.176 286.537 426.242 C 280.155 419.816 276.952 411.972 276.931 402.709 C 276.831 351.677 276.821 320.907 276.899 310.402 C 276.972 301.03 280.185 293.13 286.537 286.7 C 291.193 281.992 296.839 278.93 303.477 277.514 C 305.705 277.039 310.008 276.814 316.386 276.84 C 320.381 276.857 349.098 276.862 402.54 276.853 C 411.531 276.853 419.752 280.176 426.164 286.466 C 432.059 292.239 435.358 299.545 436.063 308.38 Z M 303.658 316.464 L 409.245 316.464 C 409.437 316.464 409.595 316.308 409.595 316.114 L 409.595 310.556 C 409.595 306.579 406.248 303.354 402.119 303.354 L 310.784 303.354 C 306.655 303.354 303.308 306.579 303.308 310.556 L 303.308 316.114 C 303.308 316.308 303.464 316.464 303.658 316.464 Z M 356.464 409.549 C 382.708 409.549 397.032 409.553 399.437 409.562 C 402.612 409.579 404.74 409.314 405.825 408.765 C 408.294 407.513 409.527 405.436 409.523 402.534 C 409.523 400.396 409.527 380.637 409.536 343.256 C 409.536 343.113 409.42 342.997 409.277 342.997 C 391.696 342.993 374.092 342.991 356.464 342.991 C 338.836 342.991 321.233 342.993 303.651 342.997 C 303.508 342.997 303.393 343.113 303.393 343.256 C 303.4 380.637 303.406 400.396 303.406 402.534 C 303.4 405.436 304.635 407.513 307.104 408.765 C 308.188 409.314 310.317 409.579 313.491 409.562 C 315.897 409.553 330.221 409.549 356.464 409.549 Z" style="fill: rgb(18, 124, 242);"/>
  </g>
  <linearGradient id="a" x1="0%" x2="99.798658%" y1="50%" y2="50%">
    <stop offset="0.26" stop-color="#f97a12"/>
    <stop offset="0.46" stop-color="#b07b58"/>
    <stop offset="0.72" stop-color="#577bae"/>
    <stop offset="0.91" stop-color="#1e7ce5"/>
    <stop offset="1" stop-color="#087cfa"/>
  </linearGradient>
  <linearGradient id="b" x1=".344828%" x2="121.182266%" y1="34.539683%" y2="77.619048%">
    <stop offset="0" stop-color="#f97a12"/>
    <stop offset="0.07" stop-color="#cb7a3e"/>
    <stop offset="0.15" stop-color="#9e7b6a"/>
    <stop offset="0.24" stop-color="#757b91"/>
    <stop offset="0.33" stop-color="#537bb1"/>
    <stop offset="0.43" stop-color="#387ccc"/>
    <stop offset="0.54" stop-color="#237ce0"/>
    <stop offset="0.66" stop-color="#147cef"/>
    <stop offset="0.79" stop-color="#0b7cf7"/>
    <stop offset="1" stop-color="#087cfa"/>
  </linearGradient>
  <linearGradient id="c" x1="78.169014%" x2="30.105634%" y1="97.749361%" y2="-6.624041%">
    <stop offset="0" stop-color="#fe315d"/>
    <stop offset="0.08" stop-color="#cb417e"/>
    <stop offset="0.16" stop-color="#9e4e9b"/>
    <stop offset="0.25" stop-color="#755bb4"/>
    <stop offset="0.34" stop-color="#5365ca"/>
    <stop offset="0.44" stop-color="#386ddb"/>
    <stop offset="0.54" stop-color="#2374e9"/>
    <stop offset="0.66" stop-color="#1478f3"/>
    <stop offset="0.79" stop-color="#0b7bf8"/>
    <stop offset="1" stop-color="#087cfa"/>
  </linearGradient>
  <linearGradient id="d" x1="20%" x2="103.421589%" y1="24.086539%" y2="132.676282%">
    <stop offset="0" stop-color="#fe315d"/>
    <stop offset="0.04" stop-color="#f63462"/>
    <stop offset="0.1" stop-color="#df3a71"/>
    <stop offset="0.17" stop-color="#c24383"/>
    <stop offset="0.29" stop-color="#ad4a91"/>
    <stop offset="0.55" stop-color="#755bb4"/>
    <stop offset="0.92" stop-color="#1d76ed"/>
    <stop offset="1" stop-color="#087cfa"/>
  </linearGradient>
</svg>

